#!OML:ASF F:\VICON\USERDATA\INSTALL\Justin_Nancy\Justin_Nancy.ASF
:FULLY-SPECIFIED
:DEGREES
426
root 15.0805 17.6092 27.5113 -3.25018 36.5911 -1.90097
lowerback 6.73889 0.985553 1.1906
upperback 0.400977 1.50459 2.4573
thorax -3.40118 0.753606 1.72515
lowerneck -12.3478 -3.65331 -9.64186
upperneck 25.3177 -3.96266 4.71698
head 10.437 -2.12889 2.82815
rclavicle -2.64384e-014 2.38542e-015
rhumerus -31.5491 -13.8199 -77.0898
rradius 28.1038
rwrist 11.0499
rhand -14.3046 12.116
rfingers 7.12502
rthumb 11.8354 -17.5295
lclavicle -2.64384e-014 2.38542e-015
lhumerus -35.2806 6.64149 86.8803
lradius 27.8746
lwrist -8.54807
lhand -15.1438 26.9286
lfingers 7.12502
lthumb 11.026 56.619
rfemur -2.06483 2.7152 27.4433
rtibia 19.0509
rfoot -9.99988 -2.19468
rtoes -0.728581
lfemur -24.0414 2.88361 -17.3884
ltibia 63.6247
lfoot -1.77432 0.852753
ltoes -5.89569
427
root 15.161 17.5778 27.6164 -3.27937 36.5205 -2.09014
lowerback 6.68835 1.02122 1.3904
upperback 0.372272 1.56772 2.48114
thorax -3.39937 0.782234 1.63217
lowerneck -11.8098 -3.62252 -9.11726
upperneck 24.6972 -3.94125 4.16546
head 10.0815 -2.13188 2.54149
rclavicle -1.53561e-014 6.36111e-015
rhumerus -31.1479 -12.8224 -77.478
rradius 28.3583
rwrist 9.7114
rhand -15.046 12.4083
rfingers 7.12502
rthumb 11.1204 -17.2771
lclavicle -1.53561e-014 6.36111e-015
lhumerus -35.3121 8.39125 85.8604
lradius 26.5581
lwrist -11.1612
lhand -13.6412 20.3801
lfingers 7.12502
lthumb 12.475 49.9877
rfemur -1.78336 2.71275 27.6381
rtibia 19.5295
rfoot -10.7754 -2.38976
rtoes 1.62553
lfemur -24.652 2.66063 -17.1752
ltibia 62.532
lfoot -3.09134 1.69484
ltoes -1.94267
428
root 15.2433 17.5568 27.7219 -3.29443 36.4765 -1.99374
lowerback 6.68541 1.05777 1.36515
upperback 0.471883 1.61052 2.45207
thorax -3.29528 0.803946 1.613
lowerneck -11.0126 -3.51978 -7.85015
upperneck 23.6685 -3.83124 2.94778
head 9.50009 -2.0979 1.91417
rclavicle -8.00108e-015 -1.35174e-014
rhumerus -30.5679 -12.122 -77.8275
rradius 28.5118
rwrist 8.53647
rhand -15.8901 13.0503
rfingers 7.12502
rthumb 10.3062 -16.6772
lclavicle -8.00108e-015 -1.35174e-014
lhumerus -35.2696 8.88987 85.7423
lradius 26.0777
lwrist -11.6339
lhand -13.4299 19.0186
lfingers 7.12502
lthumb 12.6787 48.6138
rfemur -1.32068 2.51843 27.5445
rtibia 19.8058
rfoot -11.6133 -2.55384
rtoes 5.01263
lfemur -24.8974 2.2829 -17.1406
ltibia 61.2791
lfoot -4.54836 2.43124
ltoes 1.70853
429
root 15.3301 17.5368 27.8285 -3.2978 36.3846 -1.97706
lowerback 6.48934 1.14847 1.42159
upperback 0.629603 1.72533 2.45152
thorax -3.02293 0.861259 1.57517
lowerneck -12.2799 -3.65191 -9.17281
upperneck 24.7403 -3.90317 4.07233
head 10.1855 -2.12642 2.51752
rclavicle -9.88954e-015 7.95139e-016
rhumerus -29.8039 -11.6863 -77.9552
rradius 28.6966
rwrist 8.41584
rhand -15.949 12.998
rfingers 7.12502
rthumb 10.2494 -16.7323
lclavicle -9.88954e-015 7.95139e-016
lhumerus -35.2707 8.62521 86.0838
lradius 26.0521
lwrist -11.1798
lhand -13.8711 20.2221
lfingers 7.12502
lthumb 12.2534 49.8432
rfemur -0.803163 2.41005 27.5101
rtibia 19.7967
rfoot -12.2289 -2.62286
rtoes 5.70559
lfemur -25.1116 2.07584 -17.0955
ltibia 59.8688
lfoot -5.73659 3.24076
ltoes 5.25334
430
root 15.4143 17.523 27.9431 -3.45981 36.3476 -2.25798
lowerback 6.31815 1.24728 1.70444
upperback 0.68742 1.87044 2.46161
thorax -2.86139 0.93097 1.41829
lowerneck -12.2733 -3.67596 -9.09819
upperneck 24.7082 -3.94609 4.04267
head 10.1732 -2.14198 2.48859
rclavicle 4.24902e-015 1.11319e-014
rhumerus -29.2732 -11.6575 -77.9063
rradius 28.9682
rwrist 9.26002
rhand -15.4159 12.4796
rfingers 7.12502
rthumb 10.7636 -17.2246
lclavicle 4.24902e-015 1.11319e-014
lhumerus -35.5396 8.45512 86.165
lradius 26.0339
lwrist -11.2717
lhand -13.8568 19.6496
lfingers 7.12502
lthumb 12.2672 49.2698
rfemur -0.220025 2.62022 27.8236
rtibia 19.7346
rfoot -12.7034 -2.97965
rtoes 5.46534
lfemur -25.4105 2.14951 -16.8501
ltibia 58.2533
lfoot -6.59078 4.00925
ltoes 6.44727
431
root 15.4921 17.5125 28.056 -3.61272 36.2705 -2.52443
lowerback 6.52904 1.35456 1.99252
upperback 0.472502 2.04556 2.40484
thorax -3.1918 1.01152 1.17525
lowerneck -10.7871 -3.56619 -7.43749
upperneck 23.5235 -3.91388 2.60986
head 9.39457 -2.13525 1.72067
rclavicle 1.07679e-013 -1.51076e-014
rhumerus -29.2834 -11.2221 -78.0264
rradius 29.3935
rwrist 9.01437
rhand -15.2322 12.3118
rfingers 7.12502
rthumb 10.9408 -17.3831
lclavicle 1.07679e-013 -1.51076e-014
lhumerus -36.2625 7.93626 86.1666
lradius 26.1246
lwrist -11.0553
lhand -13.4763 20.3484
lfingers 7.12502
lthumb 12.6341 49.9463
rfemur 0.306401 2.9102 28.1542
rtibia 19.6691
rfoot -13.0741 -3.28654
rtoes 6.10951
lfemur -25.806 2.29837 -16.6395
ltibia 56.4797
lfoot -7.48992 4.88246
ltoes 5.29309
432
root 15.5741 17.4943 28.1561 -3.47198 36.0899 -2.53372
lowerback 6.76407 1.37917 2.14578
upperback 0.224154 2.10204 2.30708
thorax -3.57187 1.03256 0.974255
lowerneck -11.3908 -3.56053 -8.25827
upperneck 24.3638 -3.88045 3.40358
head 9.84066 -2.10854 2.13658
rclavicle -1.43672e-013 -2.70347e-014
rhumerus -29.243 -10.3913 -78.3738
rradius 29.8583
rwrist 8.49498
rhand -15.2247 12.1056
rfingers 7.12502
rthumb 10.948 -17.589
lclavicle -1.43672e-013 -2.70347e-014
lhumerus -36.7219 7.8836 86.0231
lradius 25.7948
lwrist -10.711
lhand -12.9828 22.0072
lfingers 7.12502
lthumb 13.1098 51.5751
rfemur 0.670936 2.975 28.1542
rtibia 19.546
rfoot -13.319 -3.20834
rtoes 6.59113
lfemur -26.2529 2.26544 -16.7036
ltibia 54.5574
lfoot -8.36868 5.78178
ltoes 4.71155
433
root 15.6649 17.4778 28.2525 -3.239 35.9558 -2.69755
lowerback 6.58126 1.38324 2.51481
upperback 0.109689 2.13002 2.25909
thorax -3.57283 1.03918 0.718808
lowerneck -11.4893 -3.56007 -8.398
upperneck 24.3508 -3.88389 3.56823
head 9.86145 -2.10443 2.21627
rclavicle 1.35646e-013 -1.90833e-014
rhumerus -28.9159 -9.82147 -78.6191
rradius 30.2878
rwrist 8.17157
rhand -14.9755 12.1051
rfingers 7.12502
rthumb 11.1884 -17.5766
lclavicle 1.35646e-013 -1.90833e-014
lhumerus -36.3722 9.70029 85.2329
lradius 24.3657
lwrist -12.5058
lhand -12.708 21.0438
lfingers 7.12502
lthumb 13.3746 50.5945
rfemur 0.868467 2.80768 28.2261
rtibia 19.4102
rfoot -13.6029 -3.05843
rtoes 6.22427
lfemur -26.8136 2.17258 -16.6628
ltibia 52.5191
lfoot -8.9913 6.61362
ltoes 4.30675
434
root 15.7566 17.475 28.3544 -2.93157 35.9587 -2.6839
lowerback 6.35278 1.48552 2.76437
upperback -0.0266453 2.27326 2.11617
thorax -3.56963 1.10361 0.422853
lowerneck -11.7218 -3.76752 -8.66148
upperneck 24.6212 -4.16922 3.84089
head 10.0357 -2.23026 2.32078
rclavicle 5.56597e-014 3.97569e-016
rhumerus -28.7366 -9.71571 -78.6846
rradius 30.7513
rwrist 7.88897
rhand -15.0094 12.2077
rfingers 7.12502
rthumb 11.1557 -17.4758
lclavicle 5.56597e-014 3.97569e-016
lhumerus -36.3388 10.6783 84.6877
lradius 23.4688
lwrist -13.9195
lhand -12.6102 20.9018
lfingers 7.12502
lthumb 13.4689 50.4463
rfemur 1.16532 2.71447 28.1747
rtibia 19.2527
rfoot -13.912 -3.11958
rtoes 6.34505
lfemur -27.2676 2.1361 -16.795
ltibia 50.3013
lfoot -9.20352 7.38255
ltoes 2.67284
435
root 15.8451 17.4661 28.4621 -2.86843 36.0251 -2.83255
lowerback 6.30725 1.54797 3.02683
upperback -0.163105 2.37658 2.06877
thorax -3.67189 1.14749 0.217266
lowerneck -12.2794 -4.04432 -9.21797
upperneck 25.2496 -4.48353 4.20637
head 10.4204 -2.38506 2.50327
rclavicle 2.67117e-014 -1.39149e-014
rhumerus -28.5742 -9.3291 -78.7442
rradius 31.1399
rwrist 7.44038
rhand -15.1856 12.4255
rfingers 7.12502
rthumb 10.9857 -17.2671
lclavicle 2.67117e-014 -1.39149e-014
lhumerus -36.6308 10.7617 84.5059
lradius 23.0678
lwrist -14.1828
lhand -12.3892 21.4413
lfingers 7.12502
lthumb 13.6819 50.9716
rfemur 1.75585 2.59212 28.3032
rtibia 18.8358
rfoot -14.014 -3.07647
rtoes 7.46667
lfemur -27.4787 1.78638 -16.6744
ltibia 47.9501
lfoot -9.52708 8.0191
ltoes 2.8014
436
root 15.9306 17.4544 28.5747 -2.83967 36.0432 -2.98554
lowerback 6.14621 1.5371 3.08121
upperback -0.127634 2.3624 2.18492
thorax -3.54776 1.14282 0.313435
lowerneck -12.6172 -4.05178 -9.44521
upperneck 25.317 -4.41162 4.2128
head 10.5132 -2.37067 2.54944
rclavicle 8.53159e-014 6.75868e-015
rhumerus -28.025 -8.86026 -78.7339
rradius 31.3785
rwrist 7.26938
rhand -14.93 12.4227
rfingers 7.12502
rthumb 11.2323 -17.2566
lclavicle 8.53159e-014 6.75868e-015
lhumerus -36.4764 12.0655 84.119
lradius 22.1467
lwrist -15.427
lhand -12.3715 21.1369
lfingers 7.12502
lthumb 13.6989 50.666
rfemur 2.46101 2.54251 28.4622
rtibia 18.2448
rfoot -13.9184 -3.06373
rtoes 7.65207
lfemur -27.5451 1.31967 -16.4943
ltibia 45.4607
lfoot -9.88774 8.69973
ltoes 3.64188
437
root 16.0172 17.4533 28.6934 -2.80929 35.9534 -3.12881
lowerback 5.81401 1.59954 3.05875
upperback -0.0439532 2.42932 2.29092
thorax -3.27904 1.18176 0.44093
lowerneck -12.2585 -3.90208 -9.28983
upperneck 24.8274 -4.25027 4.15347
head 10.2451 -2.28792 2.52239
rclavicle 8.37256e-014 5.1684e-015
rhumerus -27.582 -8.57047 -78.6849
rradius 31.769
rwrist 7.09793
rhand -14.9949 12.4867
rfingers 7.12502
rthumb 11.1696 -17.196
lclavicle 8.37256e-014 5.1684e-015
lhumerus -36.5123 12.3425 84.1712
lradius 21.7941
lwrist -15.6701
lhand -12.4716 21.3707
lfingers 7.12502
lthumb 13.6025 50.9063
rfemur 3.21885 2.65537 28.6485
rtibia 17.6173
rfoot -13.9004 -3.28894
rtoes 6.24842
lfemur -27.5113 0.947904 -16.284
ltibia 42.8765
lfoot -10.0916 9.30002
ltoes 4.35719
438
root 16.1064 17.4514 28.8067 -2.63286 35.8116 -3.0841
lowerback 5.71882 1.76367 3.07044
upperback -0.197141 2.64524 2.18571
thorax -3.37565 1.2854 0.308576
lowerneck -11.4839 -3.9645 -8.95435
upperneck 24.4417 -4.45873 4.07086
head 9.96005 -2.36577 2.41628
rclavicle -1.08922e-013 -5.96354e-015
rhumerus -27.6018 -8.66848 -78.6537
rradius 32.1908
rwrist 6.78228
rhand -14.9768 12.8074
rfingers 7.12502
rthumb 11.1871 -16.8743
lclavicle -1.08922e-013 -5.96354e-015
lhumerus -36.9975 11.0611 84.656
lradius 22.062
lwrist -14.5107
lhand -12.6235 22.8988
lfingers 7.12502
lthumb 13.4561 52.4441
rfemur 3.88124 2.80812 28.6356
rtibia 17.1024
rfoot -14.0077 -3.43273
rtoes 4.91174
lfemur -27.4638 0.568405 -16.2349
ltibia 40.1822
lfoot -9.98562 9.65559
ltoes 4.79146
439
root 16.1951 17.4462 28.9181 -2.42822 35.7885 -3.1466
lowerback 5.68125 1.80405 3.151
upperback -0.389795 2.70992 2.18507
thorax -3.54947 1.31248 0.255468
lowerneck -11.2072 -4.38479 -9.5813
upperneck 24.8105 -5.06857 4.56105
head 10.1195 -2.65569 2.62581
rclavicle -8.54774e-014 -3.65764e-014
rhumerus -27.4718 -8.31425 -78.6244
rradius 32.4391
rwrist 6.30705
rhand -14.988 13.2685
rfingers 7.12502
rthumb 11.1763 -16.4138
lclavicle -8.54774e-014 -3.65764e-014
lhumerus -37.2289 10.6863 84.9831
lradius 21.9971
lwrist -14.1591
lhand -12.4186 23.5334
lfingers 7.12502
lthumb 13.6536 53.0656
rfemur 4.41095 2.79 28.7087
rtibia 16.4889
rfoot -14.0059 -3.61955
rtoes 2.90076
lfemur -27.5572 0.0880898 -16.0854
ltibia 37.5178
lfoot -9.89254 10.0486
ltoes 3.90512
440
root 16.2846 17.4524 29.0319 -2.16285 35.7912 -3.1152
lowerback 5.51493 1.76794 3.05154
upperback -0.449298 2.65352 2.28379
thorax -3.52769 1.28759 0.422033
lowerneck -11.9831 -3.9698 -9.22655
upperneck 25.0058 -4.3977 4.20199
head 10.2671 -2.34701 2.5158
rclavicle -2.77677e-014 1.94809e-014
rhumerus -27.0976 -7.40341 -78.6662
rradius 32.7661
rwrist 5.62573
rhand -15.1522 13.0603
rfingers 7.12502
rthumb 11.018 -16.6306
lclavicle -2.77677e-014 1.94809e-014
lhumerus -37.2 11.7711 84.7289
lradius 21.4202
lwrist -15.1014
lhand -12.0546 21.6634
lfingers 7.12502
lthumb 14.0044 51.1717
rfemur 4.72543 2.5905 28.693
rtibia 16.0747
rfoot -14.0101 -3.67442
rtoes 0.491971
lfemur -27.5103 -0.509587 -16.0219
ltibia 34.63
lfoot -9.5582 10.7069
ltoes 0.986665
